 <svg width="0" height="0" xmlns="http://www.w3.org/2000/svg">
        <symbol class="icon" id="icon-dropdown" viewBox="0 0 16 16">
          <path
            fill-rule="evenodd"
            clip-rule="evenodd"
            d="M11.7803 5.84099C11.4874 6.13388 11.0126 6.13388 10.7197 5.84099L8.75 3.87132L8.75 11.25C8.75 11.6642 8.41421 12 8 12C7.58579 12 7.25 11.6642 7.25 11.25L7.25 3.87132L5.28033 5.84099C4.98744 6.13388 4.51256 6.13388 4.21967 5.84099C3.92678 5.5481 3.92678 5.07322 4.21967 4.78033L7.46967 1.53033L8 1L8.53033 1.53033L11.7803 4.78033C12.0732 5.07322 12.0732 5.5481 11.7803 5.84099ZM2.5 9.75C2.5 9.33579 2.16421 9 1.75 9C1.33579 9 1 9.33579 1 9.75L1 13C1 14.1046 1.89543 15 3 15L13 15C14.1046 15 15 14.1046 15 13V9.75C15 9.33579 14.6642 9 14.25 9C13.8358 9 13.5 9.33579 13.5 9.75V13C13.5 13.2761 13.2761 13.5 13 13.5L3 13.5C2.72386 13.5 2.5 13.2761 2.5 13L2.5 9.75Z"
            fill="currentColor"
          />
        </symbol>
        <symbol class="bullhorn" id="icon-bullhorn" viewBox="0 0 16 16">
          <path
            fill-rule="evenodd"
            clip-rule="evenodd"
            d="M8.5 8.9739L14.5 11.3072V2.69276L8.5 5.0261V5.5V8.5V8.9739ZM14.6376 1.02984L7 4H3C1.34315 4 0 5.34314 0 7C0 8.65685 1.34315 10 3 10H3.9687L5.03546 14.4448C5.25436 15.3569 6.07004 16 7.00803 16C8.53239 16 9.51213 14.3817 8.80547 13.031L7.27576 10.1072L14.6376 12.9702C15.2931 13.2251 16 12.7415 16 12.0382V1.96184C16 1.25848 15.2931 0.774906 14.6376 1.02984ZM5.5113 10H5.52675L7.47639 13.7264C7.66052 14.0783 7.40523 14.5 7.00803 14.5C6.76362 14.5 6.55108 14.3324 6.49404 14.0948L5.5113 10ZM3 5.5H7V8.5H3C2.17157 8.5 1.5 7.82842 1.5 7C1.5 6.17157 2.17157 5.5 3 5.5Z"
            fill="currentColor"
          />
        </symbol>
        <symbol
          class="external-link"
          id="icon-external-link"
          viewBox="0 0 16 16"
        >
          <path
            fill-rule="evenodd"
            clip-rule="evenodd"
            d="M11.25 1C10.8358 1 10.5 1.33579 10.5 1.75C10.5 2.16421 10.8358 2.5 11.25 2.5L12.9393 2.5L8.71967 6.71967C8.42678 7.01256 8.42678 7.48744 8.71967 7.78033C9.01256 8.07322 9.48744 8.07322 9.78033 7.78033L14 3.56066V5.25C14 5.66421 14.3358 6 14.75 6C15.1642 6 15.5 5.66421 15.5 5.25V1.75V1H14.75H11.25ZM3 4L3 13C3 13.2761 3.22386 13.5 3.5 13.5L12.5 13.5C12.7761 13.5 13 13.2761 13 13V8.75C13 8.33579 13.3358 8 13.75 8C14.1642 8 14.5 8.33579 14.5 8.75V13C14.5 14.1046 13.6046 15 12.5 15L3.5 15C2.39543 15 1.5 14.1046 1.5 13V4C1.5 2.89543 2.39543 2 3.5 2L7.75 2C8.16421 2 8.5 2.33579 8.5 2.75C8.5 3.16421 8.16421 3.5 7.75 3.5L3.5 3.5C3.22386 3.5 3 3.72386 3 4Z"
            fill="currentColor"
          />
        </symbol>
        <symbol class="chart" id="icon-chart" viewBox="0 0 16 16">
          <path
            fill-rule="evenodd"
            clip-rule="evenodd"
            d="M4.25 1C4.66421 1 5 1.33579 5 1.75V11.5H14.75C15.1642 11.5 15.5 11.8358 15.5 12.25C15.5 12.6642 15.1642 13 14.75 13H5V14.25C5 14.6642 4.66421 15 4.25 15C3.83579 15 3.5 14.6642 3.5 14.25V13H2.25C1.83579 13 1.5 12.6642 1.5 12.25C1.5 11.8358 1.83579 11.5 2.25 11.5H3.5V1.75C3.5 1.33579 3.83579 1 4.25 1ZM14 5.75C14 5.33579 13.6642 5 13.25 5C12.8358 5 12.5 5.33579 12.5 5.75V9.25C12.5 9.66421 12.8358 10 13.25 10C13.6642 10 14 9.66421 14 9.25V5.75ZM10.25 3C10.6642 3 11 3.33579 11 3.75V9.25C11 9.66421 10.6642 10 10.25 10C9.83579 10 9.5 9.66421 9.5 9.25V3.75C9.5 3.33579 9.83579 3 10.25 3ZM8 7.75C8 7.33579 7.66421 7 7.25 7C6.83579 7 6.5 7.33579 6.5 7.75V9.25C6.5 9.66421 6.83579 10 7.25 10C7.66421 10 8 9.66421 8 9.25V7.75Z"
            fill="currentColor"
          />
        </symbol>

        <symbol class="retly" id="icon-retly" viewBox="0 0 16 16">
          <path
            fill-rule="evenodd"
            clip-rule="evenodd"
            d="M9.18042 0.0289944C7.51877 -0.112845 5.85434 0.268146 4.41986 1.11869C3.46351 1.68574 2.64125 2.44259 2 3.33631V1.75001C2 1.33579 1.66421 1.00001 1.25 1.00001C0.835786 1.00001 0.5 1.33579 0.5 1.75001V5.25001V6.00001H1.25H4.75C5.16421 6.00001 5.5 5.66422 5.5 5.25001C5.5 4.83579 5.16421 4.50001 4.75 4.50001H3.02277C3.5676 3.64739 4.30666 2.92967 5.18489 2.40894C6.3504 1.71787 7.70275 1.40831 9.05284 1.52356C10.4029 1.6388 11.6832 2.17309 12.7148 3.0517C13.7463 3.93031 14.4775 5.10933 14.806 6.42389C14.9065 6.82574 15.3136 7.07008 15.7155 6.96964C16.1173 6.8692 16.3617 6.46202 16.2613 6.06017C15.8569 4.44225 14.957 2.99115 13.6874 1.90978C12.4178 0.828413 10.8421 0.170834 9.18042 0.0289944ZM12.5801 14.8813C11.1457 15.7319 9.48123 16.1129 7.81958 15.971C6.15794 15.8292 4.58217 15.1716 3.31259 14.0902C2.04302 13.0089 1.14313 11.5578 0.73875 9.93985C0.63831 9.538 0.882654 9.13081 1.28451 9.03037C1.68636 8.92993 2.09354 9.17428 2.19398 9.57613C2.52254 10.8907 3.25371 12.0697 4.28523 12.9483C5.31676 13.8269 6.59708 14.3612 7.94716 14.4765C9.29725 14.5917 10.6496 14.2821 11.8151 13.5911C12.6933 13.0703 13.4324 12.3526 13.9772 11.5H12.25C11.8358 11.5 11.5 11.1642 11.5 10.75C11.5 10.3358 11.8358 10 12.25 10H15.75H16.5V10.75V14.25C16.5 14.6642 16.1642 15 15.75 15C15.3358 15 15 14.6642 15 14.25V12.6637C14.3588 13.5574 13.5365 14.3143 12.5801 14.8813Z"
            fill="currentColor"
          />
        </symbol>

        <symbol class="calendar" id="icon-calendar" viewBox="0 0 16 16">
          <path
            fill-rule="evenodd"
            clip-rule="evenodd"
            d="M4.75 1C5.16421 1 5.5 1.33579 5.5 1.75V3H10.5V1.75C10.5 1.33579 10.8358 1 11.25 1C11.6642 1 12 1.33579 12 1.75V3H14C14.5523 3 15 3.44772 15 4V14C15 14.5523 14.5523 15 14 15H2C1.44772 15 1 14.5523 1 14V4C1 3.44772 1.44772 3 2 3H4V1.75C4 1.33579 4.33579 1 4.75 1ZM2.5 4.5V6H13.5V4.5H2.5ZM2.5 13.5V7.5H13.5V13.5H2.5ZM11 11C11.5523 11 12 10.5523 12 10C12 9.44771 11.5523 9 11 9C10.4477 9 10 9.44771 10 10C10 10.5523 10.4477 11 11 11Z"
            fill="currentColor"
          />
        </symbol>
        <symbol class="circle" id="icon-circle" viewBox="0 0 16 16">
          <path
            fill-rule="evenodd"
            clip-rule="evenodd"
            d="M8 10.5C10.4853 10.5 12.5 8.48528 12.5 6C12.5 3.51472 10.4853 1.5 8 1.5C5.51472 1.5 3.5 3.51472 3.5 6C3.5 8.48528 5.51472 10.5 8 10.5ZM14 6C14 8.17327 12.8445 10.0767 11.1144 11.1294L11.6937 14.3155L12 16L10.3765 15.4561L8 14.66L5.62348 15.4561L4 16L4.30628 14.3155L4.88556 11.1294C3.15546 10.0767 2 8.17327 2 6C2 2.68629 4.68629 0 8 0C11.3137 0 14 2.68629 14 6ZM6.25186 12H8H9.74814L10.0702 13.7716L8.47647 13.2377L8 13.0781L7.52353 13.2377L5.92976 13.7716L6.25186 12ZM9.5 6C9.5 6.82843 8.82843 7.5 8 7.5C7.17157 7.5 6.5 6.82843 6.5 6C6.5 5.17157 7.17157 4.5 8 4.5C8.82843 4.5 9.5 5.17157 9.5 6ZM11 6C11 7.65685 9.65685 9 8 9C6.34315 9 5 7.65685 5 6C5 4.34315 6.34315 3 8 3C9.65685 3 11 4.34315 11 6Z"
            fill="currentColor"
          />
        </symbol>
        <symbol class="danger" id="icon-danger" viewBox="0 0 16 16">
          <path
            fill-rule="evenodd"
            clip-rule="evenodd"
            d="M8.5 14.5C12.0899 14.5 15 11.5899 15 8C15 4.41015 12.0899 1.5 8.5 1.5C4.91015 1.5 2 4.41015 2 8C2 11.5899 4.91015 14.5 8.5 14.5ZM8.5 16C12.9183 16 16.5 12.4183 16.5 8C16.5 3.58172 12.9183 0 8.5 0C4.08172 0 0.5 3.58172 0.5 8C0.5 12.4183 4.08172 16 8.5 16ZM9.5 11C9.5 11.5523 9.05229 12 8.5 12C7.94772 12 7.5 11.5523 7.5 11C7.5 10.4477 7.94772 10 8.5 10C9.05229 10 9.5 10.4477 9.5 11ZM9.25 4.75C9.25 4.33579 8.91421 4 8.5 4C8.08579 4 7.75 4.33579 7.75 4.75V8.25C7.75 8.66421 8.08579 9 8.5 9C8.91421 9 9.25 8.66421 9.25 8.25V4.75Z"
            fill="currentColor"
          />
        </symbol>
        <symbol class="close" id="icon-close" viewBox="0 0 16 16">
          <path
            fill-rule="evenodd"
            clip-rule="evenodd"
            d="M4.78033 3.21967C4.48744 2.92678 4.01256 2.92678 3.71967 3.21967C3.42678 3.51256 3.42678 3.98744 3.71967 4.28033L7.43934 8L3.71967 11.7197C3.42678 12.0126 3.42678 12.4874 3.71967 12.7803C4.01256 13.0732 4.48744 13.0732 4.78033 12.7803L8.5 9.06066L12.2197 12.7803C12.5126 13.0732 12.9874 13.0732 13.2803 12.7803C13.5732 12.4874 13.5732 12.0126 13.2803 11.7197L9.56066 8L13.2803 4.28033C13.5732 3.98744 13.5732 3.51256 13.2803 3.21967C12.9874 2.92678 12.5126 2.92678 12.2197 3.21967L8.5 6.93934L4.78033 3.21967Z"
            fill="currentColor"
          />
        </symbol>
        <symbol class="warning" id="icon-warning" viewBox="0 0 16 16">
          <path
            fill-rule="evenodd"
            clip-rule="evenodd"
            d="M8.92885 2.74646C8.73469 2.42257 8.26532 2.42257 8.07115 2.74646L2.07869 12.7429C1.87891 13.0762 2.11898 13.5 2.50754 13.5H14.4925C14.881 13.5 15.1211 13.0762 14.9213 12.7429L8.92885 2.74646ZM6.78461 1.97523C7.56126 0.679644 9.43874 0.679644 10.2154 1.97523L16.2079 11.9717C17.007 13.3047 16.0467 15 14.4925 15H2.50754C0.953303 15 -0.00696826 13.3047 0.792148 11.9717L6.78461 1.97523ZM9.5 11.5C9.5 12.0523 9.05229 12.5 8.5 12.5C7.94772 12.5 7.5 12.0523 7.5 11.5C7.5 10.9477 7.94772 10.5 8.5 10.5C9.05229 10.5 9.5 10.9477 9.5 11.5ZM9.25 5.75C9.25 5.33579 8.91421 5 8.5 5C8.08579 5 7.75 5.33579 7.75 5.75V8.75C7.75 9.16421 8.08579 9.5 8.5 9.5C8.91421 9.5 9.25 9.16421 9.25 8.75V5.75Z"
            fill="currentColor"
          />
        </symbol>
        <symbol class="success" id="icon-success" viewBox="0 0 16 16">
          <path
            fill-rule="evenodd"
            clip-rule="evenodd"
            d="M15 8C15 11.5899 12.0899 14.5 8.5 14.5C4.91015 14.5 2 11.5899 2 8C2 4.41015 4.91015 1.5 8.5 1.5C12.0899 1.5 15 4.41015 15 8ZM16.5 8C16.5 12.4183 12.9183 16 8.5 16C4.08172 16 0.5 12.4183 0.5 8C0.5 3.58172 4.08172 0 8.5 0C12.9183 0 16.5 3.58172 16.5 8ZM12.2803 6.28033C12.5732 5.98743 12.5732 5.51256 12.2803 5.21967C11.9874 4.92677 11.5126 4.92677 11.2197 5.21967L7.24999 9.18934L6.03033 7.96967C5.73744 7.67678 5.26256 7.67678 4.96967 7.96967C4.67678 8.26256 4.67678 8.73744 4.96967 9.03033L6.71966 10.7803C6.86032 10.921 7.05108 11 7.24999 11C7.44891 11 7.63967 10.921 7.78032 10.7803L12.2803 6.28033Z"
            fill="currentColor"
          />
        </symbol>
        <symbol class="info" id="icon-info" viewBox="0 0 16 16">
          <path
            fill-rule="evenodd"
            clip-rule="evenodd"
            d="M15 8C15 11.5899 12.0899 14.5 8.5 14.5C4.91015 14.5 2 11.5899 2 8C2 4.41015 4.91015 1.5 8.5 1.5C12.0899 1.5 15 4.41015 15 8ZM16.5 8C16.5 12.4183 12.9183 16 8.5 16C4.08172 16 0.5 12.4183 0.5 8C0.5 3.58172 4.08172 0 8.5 0C12.9183 0 16.5 3.58172 16.5 8ZM6.75 10.5C6.33579 10.5 6 10.8358 6 11.25C6 11.6642 6.33579 12 6.75 12H8.5H10.25C10.6642 12 11 11.6642 11 11.25C11 10.8358 10.6642 10.5 10.25 10.5H9.25V7.75V7H8.5H7.5C7.08579 7 6.75 7.33579 6.75 7.75C6.75 8.16421 7.08579 8.5 7.5 8.5H7.75V10.5H6.75ZM8.5 6C9.05229 6 9.5 5.55228 9.5 5C9.5 4.44772 9.05229 4 8.5 4C7.94772 4 7.5 4.44772 7.5 5C7.5 5.55228 7.94772 6 8.5 6Z"
            fill="currentColor"
          />
        </symbol>
        <symbol class="tip" id="icon-tip" viewBox="0 0 16 16">
          <path
            fill-rule="evenodd"
            clip-rule="evenodd"
            d="M4.66965 8.53349C2.71015 5.49942 4.88818 1.5 8.5 1.5C12.1118 1.5 14.2898 5.49942 12.3303 8.53349L10.0916 12H10H7H6.90844L4.66965 8.53349ZM5.5 12.584L3.40959 9.34728C0.805476 5.3151 3.7 0 8.5 0C13.3 0 16.1945 5.3151 13.5904 9.34728L11.5 12.584V13.5V14C11.5 15.1046 10.6046 16 9.5 16H7.5C6.39543 16 5.5 15.1046 5.5 14V13.5V12.584ZM7 13.5V14C7 14.2761 7.22385 14.5 7.5 14.5H9.5C9.77614 14.5 10 14.2761 10 14V13.5H7Z"
            fill="currentColor"
          />
        </symbol>
      </svg>